<svg xmlns="http://www.w3.org/2000/svg" viewBox="0 0 1200 700" width="1200" height="700">
  <defs>
    <linearGradient id="bg" x1="0" y1="0" x2="1" y2="1">
      <stop offset="0%" stop-color="#07111f"/>
      <stop offset="100%" stop-color="#0d1f35"/>
    </linearGradient>
    <linearGradient id="line" x1="0" y1="0" x2="1" y2="1">
      <stop offset="0%" stop-color="#2dfcde"/>
      <stop offset="100%" stop-color="#4bb4ff"/>
    </linearGradient>
    <filter id="blur"><feGaussianBlur stdDeviation="24"/></filter>
    <filter id="shadow" x="-30%" y="-30%" width="160%" height="160%">
      <feDropShadow dx="0" dy="12" stdDeviation="18" flood-color="#000000" flood-opacity="0.45"/>
    </filter>
  </defs>
  <rect width="100%" height="100%" fill="url(#bg)"/>
  <circle cx="180" cy="120" r="120" fill="#2dfcde" opacity="0.12" filter="url(#blur)"/>
  <circle cx="1020" cy="110" r="120" fill="#4bb4ff" opacity="0.14" filter="url(#blur)"/>
  <circle cx="600" cy="640" r="180" fill="#2dfcde" opacity="0.08" filter="url(#blur)"/>
  <g opacity="0.08">
    <path d="M0 90 H1200" stroke="#ffffff" stroke-width="1"/>
    <path d="M0 180 H1200" stroke="#ffffff" stroke-width="1"/>
    <path d="M0 270 H1200" stroke="#ffffff" stroke-width="1"/>
    <path d="M0 360 H1200" stroke="#ffffff" stroke-width="1"/>
    <path d="M0 450 H1200" stroke="#ffffff" stroke-width="1"/>
    <path d="M0 540 H1200" stroke="#ffffff" stroke-width="1"/>
    <path d="M0 630 H1200" stroke="#ffffff" stroke-width="1"/>
    <path d="M150 0 V700" stroke="#ffffff" stroke-width="1"/>
    <path d="M300 0 V700" stroke="#ffffff" stroke-width="1"/>
    <path d="M450 0 V700" stroke="#ffffff" stroke-width="1"/>
    <path d="M600 0 V700" stroke="#ffffff" stroke-width="1"/>
    <path d="M750 0 V700" stroke="#ffffff" stroke-width="1"/>
    <path d="M900 0 V700" stroke="#ffffff" stroke-width="1"/>
    <path d="M1050 0 V700" stroke="#ffffff" stroke-width="1"/>
  </g>
  
  <g filter="url(#shadow)">
    <rect x="150" y="120" width="900" height="460" rx="34" fill="#0a1527" stroke="#1d3b63" stroke-width="2"/>
    <text x="190" y="195" fill="#eaf2ff" font-size="42" font-family="Arial" font-weight="700">Starter</text>
    <text x="190" y="235" fill="#9ec9ff" font-size="24" font-family="Arial">Single-source quick pipeline</text>
    <rect x="190" y="280" width="220" height="180" rx="26" fill="#11233d" stroke="#2dfcde" stroke-opacity="0.35"/>
    <path d="M234 336h130M234 376h92M234 416h110" stroke="#dff7ff" stroke-width="11" stroke-linecap="round"/>
    <rect x="520" y="300" width="360" height="140" rx="24" fill="#10213a" stroke="#4bb4ff" stroke-opacity="0.35"/>
    <text x="700" y="356" fill="#eaf2ff" font-size="30" font-family="Arial" font-weight="700" text-anchor="middle">Clean Table</text>
    <text x="700" y="398" fill="#9ec9ff" font-size="24" font-family="Arial" text-anchor="middle">Fast setup • documented</text>
    <path d="M410 370h100" stroke="url(#line)" stroke-width="10" stroke-linecap="round"/>
    <path d="M480 333l35 37-35 37" fill="none" stroke="#2dfcde" stroke-width="10" stroke-linecap="round" stroke-linejoin="round"/>
  </g>

</svg>